HIERARCHY
ROOT hip
{
	OFFSET 0.000000 0.000000 0.000000 
	CHANNELS 6 Xposition Yposition Zposition Xrotation Zrotation Yrotation
	JOINT abdomen
	{
		OFFSET 0.000000 3.402643 0.000000 
		CHANNELS 3 Xrotation Zrotation Yrotation
		JOINT chest
		{
			OFFSET 0.000000 8.438565 -0.680529 
			CHANNELS 3 Xrotation Zrotation Yrotation
			JOINT neck
			{
				OFFSET 0.000000 10.207942 -0.272212 
				CHANNELS 3 Xrotation Zrotation Yrotation
				JOINT head
				{
					OFFSET 0.000000 3.130431 0.000000 
					CHANNELS 3 Xrotation Zrotation Yrotation
					End Site
					{
						OFFSET 0.000000 3.130435 0.000000 
					}
				}
			}
			JOINT lCollar
			{
				OFFSET 3.470700 6.669187 -0.816635 
				CHANNELS 3 Yrotation Zrotation Xrotation
				JOINT lShldr
				{
					OFFSET 3.198488 0.000000 0.000000 
					CHANNELS 3 Zrotation Yrotation Xrotation
					JOINT lForeArm
					{
						OFFSET 10.139888 0.000000 0.000000 
						CHANNELS 3 Yrotation Zrotation Xrotation
						JOINT lHand
						{
							OFFSET 8.370511 0.000000 0.000000 
							CHANNELS 3 Zrotation Yrotation Xrotation
							End Site
							{
								OFFSET 4.083176 0.000000 0.000000 
							}
						}
					}
				}
			}
			JOINT rCollar
			{
				OFFSET -3.470700 6.669187 -0.816635 
				CHANNELS 3 Yrotation Zrotation Xrotation
				JOINT rShldr
				{
					OFFSET -3.198488 0.000000 0.000000 
					CHANNELS 3 Zrotation Yrotation Xrotation
					JOINT rForeArm
					{
						OFFSET -10.139888 0.000000 0.000000 
						CHANNELS 3 Yrotation Zrotation Xrotation
						JOINT rHand
						{
							OFFSET -8.370511 0.000000 0.000000 
							CHANNELS 3 Zrotation Yrotation Xrotation
							End Site
							{
								OFFSET -4.083176 0.000000 0.000000 
							}
						}
					}
				}
			}
		}
	}
	JOINT lThigh
	{
		OFFSET 5.308129 -1.633274 1.361059 
		CHANNELS 3 Xrotation Zrotation Yrotation
		JOINT lShin
		{
			OFFSET -2.041588 -20.007561 0.000000 
			CHANNELS 3 Xrotation Zrotation Yrotation
			JOINT lFoot
			{
				OFFSET 0.000000 -19.190928 -1.224953 
				CHANNELS 3 Xrotation Yrotation Zrotation
				End Site
				{
					OFFSET 0.000000 -2.449906 4.627600 
				}
			}
		}
	}
	JOINT rThigh
	{
		OFFSET -5.308129 -1.633274 1.361059 
		CHANNELS 3 Xrotation Zrotation Yrotation
		JOINT rShin
		{
			OFFSET 2.041588 -20.007561 0.000000 
			CHANNELS 3 Xrotation Zrotation Yrotation
			JOINT rFoot
			{
				OFFSET 0.000000 -19.190928 -1.224953 
				CHANNELS 3 Xrotation Yrotation Zrotation
				End Site
				{
					OFFSET 0.000000 -2.449906 4.627600 
				}
			}
		}
	}
}
MOTION
Frames: 16
Frame Time: 0.033333
0.137134 46.027363 2.018915 20.917549 -2.382794 -0.224821 0.000000 0.000000 0.000000 9.567007 -0.398143 6.074343 22.926142 5.195249 0.284692 -29.264055 -1.317320 -2.276136 -22.986906 18.423862 24.985819 -94.233734 26.188841 -7.731451 -64.199394 -15.824911 32.938614 -2.823526 -6.009676 -58.766983 10.627429 -11.439723 24.997305 58.498146 11.134922 72.170479 65.080063 -97.030792 16.680019 -0.826955 -1.343533 -82.889282 -25.014713 3.161913 16.268278 103.726555 17.282419 0.663211 -3.934374 7.744167 -4.768906 -18.032759 1.816007 2.300609 44.503651 6.405189 4.483522 -18.938196 -7.322109 23.214682 
0.520691 47.761196 2.033357 19.775576 0.595620 0.957183 0.000000 0.000000 0.000000 12.342638 -2.906997 5.397535 23.391893 4.003885 0.186458 -29.826006 -1.042799 -3.652982 -23.123901 14.299323 24.991602 -92.000458 30.787218 -9.686049 -65.827026 -17.926342 27.131430 -2.625834 -6.842744 -58.943645 11.044972 -12.062805 24.993355 56.459202 14.461218 70.541969 58.971771 -104.347466 10.338509 0.834671 -0.786171 -82.705421 -26.930326 -2.021889 14.566193 87.063232 16.619801 0.492021 -1.993472 1.020814 -7.141447 -2.770104 -3.228739 0.246358 27.049465 7.729242 3.091838 -11.625061 -2.676722 25.089067 
0.422719 49.070599 2.115915 18.731096 0.410156 0.087958 0.000000 0.000000 0.000000 14.514492 -3.170354 5.232254 23.858833 2.070312 0.039390 -30.024805 0.799553 -3.174064 -21.615688 12.245897 24.990538 -91.327545 34.311962 -10.706028 -67.481796 -18.150036 21.095594 -3.625371 -10.116366 -58.613220 12.788737 -12.865811 24.997232 55.812328 15.840040 69.958572 52.736000 -106.644997 3.565576 -2.488654 -1.985118 -83.204514 -26.830414 -1.495033 14.730674 67.531654 14.758229 0.431988 -2.007867 -5.725788 -11.332106 8.666088 -4.723904 -0.435172 15.607492 10.697665 2.690028 -1.825760 -0.081091 27.617073 
0.321709 49.855465 2.366732 15.763021 -0.283200 -0.263717 0.000000 0.000000 0.000000 18.157621 -3.054497 5.055687 23.749310 0.810547 -0.048823 -30.035927 2.029051 -2.667455 -19.203117 10.058287 24.998062 -88.609146 35.829689 -13.179331 -69.162437 -20.793112 17.245047 -3.043178 -11.963271 -58.797470 14.089006 -12.990457 24.997061 56.008343 14.482557 70.352921 45.909637 -107.831741 -2.210986 0.262979 -3.285829 -82.429482 -21.569952 -0.586411 15.641326 46.004070 10.975699 0.459561 -3.593075 -9.240329 -11.094934 18.372520 -4.158780 -0.371361 14.881790 8.931072 2.258700 5.508715 1.444439 26.494417 
0.379028 49.576172 2.116632 18.216772 -0.615222 -0.361412 0.000000 0.000000 0.000000 15.650852 -3.287460 5.154793 22.997454 0.869140 -0.039058 -30.356510 2.117107 -2.511298 -18.111885 10.568843 24.991077 -88.644493 34.256413 -12.773608 -69.712181 -19.970724 17.801756 0.962911 -16.052107 -60.041031 16.473579 -10.904419 24.996357 57.307350 10.000526 71.907509 56.800125 -105.585464 12.368156 -1.117994 0.763901 -83.145370 -25.567558 -0.129219 15.278795 38.311314 8.573688 0.325358 -8.631359 -3.822126 7.774021 20.269550 -2.314313 0.169889 18.512842 3.915192 1.487504 6.365578 -3.351516 27.476547 
0.236454 48.948612 2.193882 17.513430 -2.850883 -1.251853 0.000000 0.000000 0.000000 16.186434 -2.129277 5.374630 21.513157 0.605469 -0.048825 -29.754486 3.056273 -0.889490 -16.147787 12.354751 24.989767 -90.148109 32.787647 -11.329352 -72.341057 -16.431601 16.863436 0.496332 -16.954491 -59.961609 18.640169 -10.539263 24.998844 59.780560 7.532620 73.544044 73.091492 -99.445396 29.646238 1.181393 0.978469 -82.568512 -27.280104 3.171923 15.951735 29.792183 6.243258 0.299906 -8.188463 -4.424197 6.531782 22.946861 1.268995 1.247425 29.724669 -2.334911 1.142838 6.945575 -2.191460 21.008705 
-0.012505 47.668175 2.429374 15.244770 -4.469183 -2.263455 0.000000 0.000000 0.000000 17.596376 -2.353384 5.248528 20.792574 1.826171 0.049114 -30.263004 4.031757 1.537647 -14.856744 15.618981 24.997145 -91.796440 30.136509 -9.748396 -75.265396 -13.651733 15.520729 1.358041 -16.959478 -60.498913 19.623037 -9.379992 24.996967 63.132504 5.870952 75.405243 -27.436823 -82.753647 -70.779068 7.539578 0.539904 -81.380539 -28.982862 7.538290 16.999033 34.682755 3.683505 -0.549736 -6.083976 -2.915189 4.492482 23.523224 4.335309 2.134391 47.981625 -7.940891 1.673171 8.841479 -3.408018 20.067871 
0.008427 45.841343 2.357846 15.952130 -4.146464 -2.497128 0.000000 0.000000 0.000000 15.504667 -3.540663 5.097453 20.751493 3.408190 0.156554 -30.404518 3.746509 2.476267 -15.302507 18.019356 24.995527 -91.648262 24.746492 -9.234789 -79.440132 -12.095418 15.449269 0.009001 -15.202429 -60.182983 17.857935 -8.963623 24.995600 66.399254 3.589620 77.412262 9.368784 -72.490700 -32.943565 10.552075 3.477064 -81.056213 -34.320782 8.551438 16.417173 48.412334 4.380970 -1.127999 -4.389808 2.479710 18.884480 17.783260 3.962736 2.062875 69.034988 -8.559135 3.561950 10.732234 -8.611569 26.682791 
0.359918 44.439003 2.148788 16.413195 -3.161629 -2.249675 0.000000 0.000000 0.000000 14.518843 -4.426811 4.956026 19.981844 4.706985 0.255454 -30.443100 2.917715 2.229640 -16.965944 17.836006 24.998142 -89.077980 16.425804 -9.885345 -84.856911 -9.070285 20.547239 1.736181 -14.131383 -61.029865 15.916225 -8.561273 24.993687 67.300316 1.135818 78.466515 18.813311 -59.085480 -23.691114 12.095743 4.034871 -80.842560 -37.406826 7.048278 15.398713 59.492954 6.284396 -1.210204 -10.957707 6.450305 20.443020 8.891145 1.610668 1.430441 88.462524 -5.916987 5.748233 10.921548 -18.615959 24.908396 
0.445518 44.020237 1.901734 18.163063 -2.728787 -3.666320 0.000000 0.000000 0.000000 12.591320 -4.796447 4.968085 19.773670 4.345667 0.235181 -30.201723 3.852801 2.809519 -16.464144 16.843695 24.989208 -83.691238 7.505794 -11.717955 -90.079277 -8.887991 16.042431 1.076501 -12.265012 -61.123703 16.906876 -8.503596 25.000000 69.028816 -0.544403 79.699486 19.514940 -47.567585 -18.679613 19.071423 1.447043 -80.178413 -36.320141 8.071924 15.886014 62.402744 5.512431 -1.458903 -16.299200 5.805023 17.067728 -3.426199 1.318047 1.626835 101.749084 -4.570992 6.855133 11.153342 -26.459932 22.986248 
0.628672 44.457893 1.590012 20.757612 -1.891713 -3.126841 0.000000 0.000000 0.000000 10.634900 -5.302506 4.951998 18.975777 5.400305 0.324512 -29.833162 2.674617 1.691714 -18.800949 18.188549 24.990883 -80.771385 -1.863426 -12.236896 -96.781570 -3.951598 15.856517 3.639824 -13.962281 -62.258991 14.879465 -8.602208 25.000000 68.782364 -5.420426 81.018997 23.146372 -46.244209 -6.123668 25.547602 4.736194 -79.466560 -33.062740 6.736552 16.089874 58.880997 4.566450 -1.526516 -18.106375 5.866453 21.599026 -16.739964 0.673234 1.902157 107.491425 -2.843372 7.478271 7.851099 -25.469524 17.580385 
0.557696 45.763531 1.488245 22.459570 -2.322224 -2.375054 0.000000 0.000000 0.000000 10.015627 -5.185371 5.000634 17.971542 7.460687 0.473658 -30.024067 1.220452 1.162470 -22.195395 19.993599 24.993250 -78.251434 -8.859726 -12.805228 -102.672554 3.104797 19.907732 11.080233 -17.640167 -65.677490 11.803414 -6.960732 25.000000 65.541245 -11.647381 81.408211 31.481892 -49.041878 4.392125 24.730278 7.370612 -79.114105 -25.509155 5.658971 16.955158 49.096050 4.400412 -1.158068 -16.203114 2.286178 16.887213 -27.828854 1.777295 2.699710 104.144501 -0.782970 7.732041 5.217647 -18.554115 14.297913 
0.457263 47.338467 1.571162 22.804260 -2.186920 -1.319635 0.000000 0.000000 0.000000 10.715669 -5.721694 4.857550 17.265060 9.960260 0.674323 -29.981201 -0.810479 0.742251 -25.713219 22.328693 24.994987 -76.586296 -13.772815 -13.196347 -107.802277 9.026525 23.572628 10.573154 -16.704428 -65.520538 8.178162 -5.710024 24.992081 62.966061 -16.102484 81.561150 39.470490 -50.126053 10.338052 20.058519 7.117120 -79.369347 -14.559528 3.153736 17.400957 34.702103 3.878741 -0.521781 -11.232745 -0.107925 16.254404 -33.836357 2.236117 3.144557 92.554260 0.829785 7.452586 2.803565 -12.094805 14.855199 
0.409361 48.701050 1.737965 22.258797 -1.230465 -0.136897 0.000000 0.000000 0.000000 12.132768 -6.834032 4.553205 16.740625 12.469311 0.871738 -28.750772 -2.265625 0.019516 -27.835455 25.062365 24.995546 -77.070732 -16.809767 -12.868032 -110.944527 11.386539 26.442282 9.854686 -15.108670 -65.138931 5.631446 -4.857437 24.999701 61.748169 -19.439596 82.087524 44.198589 -50.985512 10.203160 17.828905 5.322518 -79.739822 -3.325508 0.601590 17.296200 21.551712 1.687660 -0.275191 -1.777304 -2.424902 12.194557 -36.509434 1.269108 2.997055 77.169670 2.189995 6.589234 -0.217077 -5.698256 27.567936 
0.538043 49.518768 1.881422 21.423903 1.132481 1.387027 0.000000 0.000000 0.000000 13.746279 -8.952739 4.033017 15.920858 14.704670 1.051765 -27.565964 -3.573519 -1.135479 -31.026640 27.812508 24.989965 -80.230469 -17.741856 -11.595609 -112.340157 11.647680 30.247656 14.254107 -14.687536 -66.758980 3.010077 -3.640856 24.999796 59.975372 -22.029959 82.018906 48.738232 -53.156986 12.874084 13.375558 5.315952 -80.197556 4.640211 -2.590744 16.256521 17.793825 1.509364 -0.014536 3.658172 -6.656702 6.245883 -35.193409 -1.279416 2.168876 58.062290 2.505084 4.942910 -4.213275 -5.580050 28.043518 
0.697451 49.561825 1.908172 22.380171 4.192281 3.300048 0.000000 0.000000 0.000000 13.237585 -11.717225 3.479889 14.946609 16.441950 1.192592 -27.064274 -5.014243 -2.637378 -35.178833 29.996267 24.990921 -85.315369 -17.163797 -9.575325 -111.510635 10.463960 35.125854 17.150448 -14.658908 -67.743950 -0.788122 -3.661739 24.711765 59.217159 -22.056963 81.557220 52.536556 -55.534191 18.077066 8.982511 5.424168 -80.771828 7.008484 -6.947691 14.898572 24.159328 6.833220 0.757105 3.491594 -13.363977 6.393662 -34.637920 -5.243891 0.953101 39.697002 3.479860 3.367775 -6.308155 -7.663972 25.614813 
